<?xml version="1.0" ?><!DOCTYPE svg  PUBLIC '-//W3C//DTD SVG 1.1//EN'  'http://www.w3.org/Graphics/SVG/1.1/DTD/svg11.dtd'><svg enable-background="new 0 0 30 30" height="30px" id="Capa_1" version="1.1" viewBox="0 0 30 30" width="30px" xml:space="preserve" xmlns="http://www.w3.org/2000/svg" xmlns:xlink="http://www.w3.org/1999/xlink"><path d="M14.7,11.7c0.4,0,0.8-0.3,0.8-0.8c0-0.8,0.8-1.6,1.7-2.5c1-1,2.2-2.1,2.2-3.7c0-1.1-0.6-2.2-1.8-3.4  c-0.3-0.3-0.8-0.3-1.1,0c-0.3,0.3-0.3,0.8,0,1.1c0.9,0.9,1.3,1.7,1.3,2.3c0,0.9-0.8,1.7-1.7,2.6c-1,1-2.1,2.1-2.1,3.6  C14,11.3,14.3,11.7,14.7,11.7z M7.2,16.1c-1.7,0-3.1,1.4-3.1,3.1s1.4,3.1,3.1,3.1c1.7,0,3.1-1.4,3.1-3.1S9,16.1,7.2,16.1z M7.2,20.9  c-0.9,0-1.6-0.7-1.6-1.6s0.7-1.6,1.6-1.6c0.9,0,1.6,0.7,1.6,1.6S8.1,20.9,7.2,20.9z M25.9,17.5h-1v-1c0-0.4-0.3-0.8-0.8-0.8h-2.2  c-0.4,0-0.8,0.3-0.8,0.8v1h-1c-0.4,0-0.8,0.3-0.8,0.8v2.2c0,0.4,0.3,0.8,0.8,0.8h1v1c0,0.4,0.3,0.8,0.8,0.8h2.2  c0.4,0,0.8-0.3,0.8-0.8v-1h1c0.4,0,0.8-0.3,0.8-0.8v-2.2C26.6,17.8,26.3,17.5,25.9,17.5z M25.1,19.7h-1c-0.4,0-0.8,0.3-0.8,0.8v1  h-0.7v-1c0-0.4-0.3-0.8-0.8-0.8h-1V19h1c0.4,0,0.8-0.3,0.8-0.8v-1h0.7v1c0,0.4,0.3,0.8,0.8,0.8h1V19.7z M23.5,12.4h-17  c-2.6,0-6.4,2.7-6.4,7.4v2.5c0,3.1,1.3,6.5,4.9,6.5c3.9,0,7.2-4.6,8.1-6h3.9c0.9,1.4,4.2,6,8.1,6c3.6,0,4.9-3.4,4.9-6.5v-2.5  C29.9,15,26.1,12.4,23.5,12.4z M28.4,22.4c0,1.5-0.3,5-3.4,5c-3.7,0-7-5.5-7-5.6c-0.1-0.2-0.4-0.4-0.6-0.4h-4.7  c-0.3,0-0.5,0.1-0.6,0.4c0,0.1-3.4,5.6-7,5.6c-3,0-3.4-3.5-3.4-5v-2.5c0-4,3.1-5.9,4.9-5.9h17c1.7,0,4.9,2,4.9,5.9V22.4z" fill="#262324"/></svg>