<?xml version="1.0" ?><svg viewBox="0 0 64 64" xmlns="http://www.w3.org/2000/svg"><title/><g id="Remot"><path d="M35.25,61h-6.5A7.76,7.76,0,0,1,21,53.25V10.75A7.76,7.76,0,0,1,28.75,3h6.5A7.76,7.76,0,0,1,43,10.75v42.5A7.76,7.76,0,0,1,35.25,61ZM28.75,5A5.76,5.76,0,0,0,23,10.75v42.5A5.76,5.76,0,0,0,28.75,59h6.5A5.76,5.76,0,0,0,41,53.25V10.75A5.76,5.76,0,0,0,35.25,5Z"/><path d="M32,37a1,1,0,0,1-1-1V28a1,1,0,0,1,2,0v8A1,1,0,0,1,32,37Z"/><path d="M36,33H28a1,1,0,0,1,0-2h8a1,1,0,0,1,0,2Z"/><path d="M28,13H26a1,1,0,0,1,0-2h2a1,1,0,0,1,0,2Z"/><path d="M33,13H31a1,1,0,0,1,0-2h2a1,1,0,0,1,0,2Z"/><path d="M38,13H36a1,1,0,0,1,0-2h2a1,1,0,0,1,0,2Z"/><path d="M28,17H26a1,1,0,0,1,0-2h2a1,1,0,0,1,0,2Z"/><path d="M33,17H31a1,1,0,0,1,0-2h2a1,1,0,0,1,0,2Z"/><path d="M38,17H36a1,1,0,0,1,0-2h2a1,1,0,0,1,0,2Z"/><path d="M28,21H26a1,1,0,0,1,0-2h2a1,1,0,0,1,0,2Z"/><path d="M33,21H31a1,1,0,0,1,0-2h2a1,1,0,0,1,0,2Z"/><path d="M38,21H36a1,1,0,0,1,0-2h2a1,1,0,0,1,0,2Z"/><path d="M28,25H26a1,1,0,0,1,0-2h2a1,1,0,0,1,0,2Z"/><path d="M33,25H31a1,1,0,0,1,0-2h2a1,1,0,0,1,0,2Z"/><path d="M38,25H36a1,1,0,0,1,0-2h2a1,1,0,0,1,0,2Z"/><path d="M30,41H25a1,1,0,0,1,0-2h5a1,1,0,0,1,0,2Z"/><path d="M39,41H34a1,1,0,0,1,0-2h5a1,1,0,0,1,0,2Z"/><path d="M30,45H25a1,1,0,0,1,0-2h5a1,1,0,0,1,0,2Z"/><path d="M39,45H34a1,1,0,0,1,0-2h5a1,1,0,0,1,0,2Z"/></g></svg>